#tb 0: 1/25
#media_type 0: video
#codec_id 0: rawvideo
#dimensions 0: 256x256
#sar 0: 1/1
0,          0,          0,        1,   262144, 0xf142b78c
0,          1,          1,        1,   262144, 0xbb93cf86
0,          2,          2,        1,   262144, 0x3f543221
